<?xml version="1.0" standalone="no"?>
<!DOCTYPE svg PUBLIC "-//W3C//DTD SVG 20010904//EN"
 "http://www.w3.org/TR/2001/REC-SVG-20010904/DTD/svg10.dtd">
<svg version="1.0" xmlns="http://www.w3.org/2000/svg"
 width="1305.000000pt" height="1305.000000pt" viewBox="0 0 1305.000000 1305.000000"
 preserveAspectRatio="xMidYMid meet">
<metadata>
Created by potrace 1.14, written by Peter Selinger 2001-2017
</metadata>
<g transform="translate(0.000000,1305.000000) scale(0.100000,-0.100000)"
fill="#000000" stroke="none">
<path d="M8592 12850 c-17 -14 -42 -73 -84 -192 -163 -470 -306 -885 -343
-993 -14 -44 -31 -89 -36 -100 -6 -12 -11 -27 -13 -35 -2 -8 -6 -24 -10 -35
-10 -25 -9 -24 -106 -305 -45 -129 -84 -238 -88 -242 -4 -4 -37 1 -72 13 -36
11 -92 27 -125 35 -33 9 -85 22 -115 30 -30 8 -71 17 -90 20 -19 3 -38 8 -41
10 -3 2 -21 6 -40 9 -19 3 -45 8 -59 10 -53 11 -76 15 -115 20 -22 3 -65 10
-95 15 -30 5 -84 12 -120 15 -36 4 -78 8 -95 10 -198 22 -685 21 -797 0 -10
-2 -51 -6 -91 -10 -40 -3 -84 -7 -97 -10 -14 -3 -45 -8 -70 -11 -25 -3 -52 -7
-60 -9 -8 -2 -35 -7 -60 -10 -37 -5 -115 -21 -200 -40 -654 -146 -1301 -459
-1820 -880 -40 -33 -82 -67 -91 -75 -149 -134 -196 -178 -269 -251 -99 -100
-155 -159 -230 -249 -30 -36 -57 -67 -60 -70 -14 -13 -172 -224 -221 -295
-168 -245 -315 -514 -428 -785 -29 -69 -57 -134 -62 -145 -24 -53 -113 -340
-148 -476 -43 -163 -64 -260 -81 -374 -6 -38 -13 -81 -15 -95 -2 -14 -7 -52
-11 -85 -3 -33 -8 -69 -10 -80 -19 -95 -26 -643 -10 -820 12 -138 32 -309 42
-360 3 -11 7 -36 10 -55 3 -19 7 -42 9 -50 2 -8 7 -31 10 -50 22 -140 148
-590 194 -695 5 -11 28 -67 52 -125 23 -58 65 -154 94 -215 28 -60 53 -114 54
-120 1 -5 8 -17 15 -25 7 -8 16 -23 19 -33 33 -91 333 -553 455 -699 276 -330
511 -559 802 -778 47 -36 87 -68 88 -72 2 -5 7 -8 12 -8 4 0 36 -19 70 -43 34
-23 69 -46 78 -52 9 -5 58 -35 108 -66 198 -124 448 -249 664 -334 52 -21 99
-41 103 -45 7 -7 -139 -460 -158 -491 -4 -5 -8 -17 -10 -26 -4 -17 -28 -89
-235 -683 -45 -129 -90 -260 -100 -290 -10 -30 -44 -127 -75 -215 -31 -88 -58
-167 -60 -175 -2 -8 -22 -67 -45 -130 -62 -173 -90 -262 -90 -293 0 -31 26
-83 45 -91 21 -8 75 26 96 60 18 29 83 209 184 509 15 44 29 87 32 95 57 161
105 298 108 310 1 8 10 33 19 55 8 22 56 159 105 305 50 146 95 272 100 280 4
9 12 31 16 50 4 19 10 39 13 44 4 8 90 253 174 501 23 66 43 122 44 124 2 2
32 -4 66 -14 178 -50 297 -82 348 -91 14 -3 32 -7 40 -9 8 -2 31 -7 50 -10 19
-3 67 -12 105 -20 39 -8 88 -17 110 -19 22 -3 56 -8 75 -11 19 -2 58 -7 85
-10 28 -3 66 -7 85 -10 193 -22 645 -23 842 -1 94 11 154 18 169 21 9 2 40 6
69 10 29 4 62 9 74 11 12 2 44 8 71 13 28 6 64 12 80 15 17 3 39 7 50 10 11 3
61 15 110 26 139 33 411 114 470 140 11 5 81 32 155 61 157 62 443 202 580
284 88 53 272 170 295 187 6 4 59 44 119 89 100 74 212 164 241 192 6 7 29 26
50 42 67 52 326 317 425 435 30 36 57 67 60 70 57 53 325 438 401 575 88 159
113 207 164 310 104 216 254 611 279 740 1 6 5 19 9 30 3 11 9 31 11 45 3 14
17 70 30 125 14 55 27 120 31 145 4 24 8 47 10 50 3 6 7 29 29 185 33 237 40
335 40 610 0 132 -4 285 -8 340 -5 55 -10 111 -11 125 -1 14 -5 43 -8 65 -3
22 -9 63 -12 90 -6 53 -14 104 -21 139 -2 11 -7 37 -10 56 -4 19 -9 44 -11 55
-5 26 -12 63 -19 100 -21 126 -163 574 -225 711 -10 22 -27 65 -39 94 -19 47
-164 343 -194 395 -288 500 -568 839 -1010 1226 -347 303 -844 594 -1313 769
-38 14 -38 14 14 160 19 52 36 102 38 110 2 8 36 107 75 220 40 113 115 329
167 480 107 309 263 760 298 862 14 38 22 82 20 100 -8 62 -75 88 -123 48z
m-1667 -1874 c240 -17 575 -80 830 -158 55 -16 101 -31 102 -32 2 -1 -27 -88
-63 -192 -36 -104 -95 -274 -131 -379 -36 -104 -68 -193 -72 -197 -4 -4 -7 1
-8 12 -1 11 -11 33 -23 48 -57 74 -177 79 -307 13 -51 -26 -97 -42 -133 -46
-30 -3 -73 -8 -95 -12 -69 -11 -229 -11 -255 1 -39 16 -100 55 -100 64 0 4 39
20 88 36 161 52 240 114 227 180 -7 38 -26 59 -100 109 -70 46 -94 73 -95 104
0 26 -78 107 -129 132 -20 10 -55 22 -78 26 -22 3 -49 16 -59 27 -21 23 -101
78 -113 78 -12 0 -19 21 -16 50 4 38 4 40 15 40 5 0 34 11 64 25 58 27 89 32
225 39 67 4 88 9 104 25 11 10 25 18 31 16 6 -2 47 -6 91 -9z m-1005 -67 c0
-12 -85 -59 -117 -65 -15 -3 -39 -16 -53 -29 -17 -16 -42 -26 -80 -30 -49 -6
-60 -3 -93 19 -21 14 -43 26 -50 26 -7 0 -20 7 -30 14 -18 14 -18 14 0 20 24
7 195 45 236 52 18 3 61 11 97 18 56 11 67 11 78 -3 6 -8 12 -18 12 -22z
m-1849 -872 c18 -8 56 -28 83 -46 28 -17 58 -31 68 -31 24 0 131 -36 183 -61
56 -28 105 -32 218 -20 87 9 103 14 145 43 26 19 56 38 67 42 37 16 130 32
165 30 44 -3 137 -4 215 -1 33 1 87 -2 120 -7 79 -10 224 -10 255 2 68 24 114
16 232 -43 62 -31 121 -64 132 -73 35 -32 67 -101 112 -244 25 -78 67 -186 94
-238 63 -126 80 -208 75 -375 -1 -71 1 -138 7 -148 8 -17 11 -16 41 5 18 12
34 25 37 28 3 3 21 14 41 23 31 14 38 24 48 64 17 66 58 126 138 203 117 112
120 113 218 66 94 -46 160 -54 213 -27 39 20 59 46 43 55 -5 3 -25 33 -45 67
-47 79 -49 126 -5 163 65 55 202 71 264 30 25 -16 26 -16 73 27 26 24 49 47
50 51 2 4 8 8 12 8 5 0 26 11 46 25 54 36 65 34 49 -12 -8 -21 -37 -105 -65
-188 -28 -82 -55 -159 -60 -170 -5 -11 -25 -69 -45 -130 -37 -109 -116 -338
-282 -815 -46 -135 -93 -270 -103 -300 -10 -30 -38 -109 -61 -175 -23 -66 -59
-169 -79 -230 -21 -60 -66 -189 -100 -285 -33 -96 -70 -204 -81 -239 l-21 -64
-36 42 c-85 98 -198 100 -254 5 -11 -19 -24 -34 -28 -34 -5 0 -11 -13 -15 -30
-5 -21 -28 -47 -83 -91 -102 -81 -166 -116 -292 -160 -233 -81 -316 -117 -528
-229 -47 -24 -83 -35 -136 -40 -39 -4 -81 -12 -93 -18 -41 -23 -72 -83 -119
-232 -25 -82 -121 -360 -177 -510 -48 -132 -84 -208 -155 -332 -34 -59 -62
-111 -62 -116 0 -6 -32 -53 -70 -105 l-71 -96 -9 -110 c-6 -61 -18 -134 -28
-163 -15 -46 -23 -56 -62 -76 -36 -18 -61 -22 -130 -22 -48 0 -96 6 -110 13
-37 18 -78 85 -90 147 -17 82 -35 140 -74 237 -19 48 -44 125 -56 171 -15 59
-39 115 -89 200 -80 139 -91 168 -91 234 0 57 -9 99 -57 258 -19 63 -39 138
-45 165 -7 32 -11 266 -13 650 -1 462 -4 609 -14 640 -28 83 -73 163 -139 242
-110 132 -245 421 -278 593 -16 87 -24 108 -48 133 -8 8 -33 40 -55 71 -75
107 -64 230 36 414 32 59 60 113 61 121 2 7 17 39 33 70 16 30 29 61 29 67 0
7 3 14 8 16 4 2 31 50 60 108 29 58 58 114 65 125 118 192 189 288 292 391 64
65 236 194 258 194 8 0 24 12 38 26 41 44 65 48 130 21z m3802 -1649 c25 -26
60 -84 89 -148 141 -303 156 -325 323 -456 134 -106 171 -124 305 -148 223
-40 378 -120 412 -212 6 -18 16 -34 20 -34 4 0 8 -5 8 -12 0 -6 7 -19 16 -29
8 -9 17 -23 18 -31 2 -7 8 -25 14 -39 6 -15 25 -93 43 -175 27 -126 32 -173
34 -301 5 -269 30 -327 227 -525 110 -109 145 -152 165 -196 33 -73 63 -210
63 -283 0 -34 10 -91 25 -138 21 -67 32 -86 70 -119 39 -35 55 -41 152 -60
188 -37 183 -37 225 1 43 41 71 92 91 170 31 117 9 190 -100 334 -71 94 -89
144 -106 286 -8 74 -8 108 1 141 9 35 8 58 -3 112 -10 48 -13 106 -10 189 7
168 11 192 45 276 16 41 30 79 30 85 0 22 60 94 92 111 25 12 61 17 143 19 61
1 124 4 140 7 17 3 54 8 82 11 36 4 70 17 107 41 30 19 58 35 61 35 3 0 23 17
44 38 27 27 41 50 46 80 6 39 21 58 22 30 1 -21 13 -101 18 -128 3 -14 7 -45
10 -70 2 -25 6 -61 9 -80 27 -186 28 -730 1 -920 -2 -14 -6 -47 -9 -75 -6 -46
-11 -82 -22 -145 -3 -14 -9 -52 -15 -85 -15 -93 -61 -298 -69 -314 -6 -11 -9
-10 -14 6 -4 12 -37 36 -82 59 -77 40 -114 82 -114 133 0 33 -11 51 -41 66
-48 25 -56 20 -62 -42 -4 -32 -14 -114 -23 -183 -9 -69 -17 -147 -19 -175 -2
-27 -6 -82 -9 -122 -5 -54 1 -115 24 -250 38 -228 38 -246 -5 -345 -19 -44
-32 -84 -30 -89 15 -23 -287 -491 -413 -641 -11 -13 -53 -62 -92 -111 -40 -48
-74 -86 -76 -84 -2 1 -6 26 -9 54 -8 71 -31 156 -54 202 -21 41 -72 73 -106
66 -11 -2 -26 -4 -32 -4 -20 -1 -73 -62 -99 -112 -30 -60 -71 -264 -73 -361
-1 -52 1 -50 -105 -63 -133 -16 -200 -36 -391 -115 -183 -75 -326 -128 -363
-134 -57 -10 -109 -16 -172 -21 -36 -3 -85 -7 -110 -10 -25 -3 -114 -8 -198
-10 -84 -2 -156 -6 -160 -9 -4 -2 -24 -7 -45 -10 -80 -13 -188 -91 -233 -168
-40 -68 -139 -279 -149 -318 -13 -50 -10 -121 6 -152 6 -11 13 -53 16 -93 l6
-72 -114 -21 c-372 -70 -711 -91 -1084 -68 -66 4 -131 9 -145 11 -14 3 -52 7
-85 10 -63 6 -101 12 -148 21 -16 3 -38 7 -50 9 -122 15 -471 100 -614 150
-13 4 -15 -4 122 390 42 121 85 245 95 275 10 30 53 154 95 275 42 121 80 231
85 245 4 14 47 138 95 275 124 358 165 477 235 680 33 99 65 189 70 200 10 25
100 284 105 305 2 8 22 67 45 130 23 63 72 205 110 315 38 110 73 214 79 230
21 58 240 693 267 775 4 12 9 9 24 -10 11 -14 20 -30 20 -36 0 -19 34 -42 80
-54 26 -7 127 -14 240 -15 179 -3 203 -1 285 21 63 17 126 25 210 28 205 7
268 29 462 160 62 41 137 87 165 100 87 42 148 107 148 161 0 85 -131 243
-253 305 -38 19 -94 58 -125 87 -31 29 -64 55 -74 59 -16 5 -18 19 -18 147 0
80 6 170 14 207 14 66 17 405 4 425 -3 6 -9 30 -13 55 -4 25 -9 48 -11 52 -3
5 7 8 22 8 19 0 39 -13 67 -42z m-2247 -2743 c-13 -55 -34 -125 -46 -155 -39
-99 -51 -144 -51 -200 -1 -75 -16 -123 -65 -205 -23 -38 -57 -106 -75 -150
-69 -169 -136 -235 -236 -235 -68 0 -72 13 -47 159 3 14 6 35 8 46 32 181 252
558 363 621 28 16 55 49 103 128 36 58 66 102 67 98 2 -4 -8 -52 -21 -107z"/>
<path d="M6452 8567 l-62 -93 0 -159 c0 -162 -5 -209 -36 -345 -11 -46 -18
-119 -18 -190 l-1 -115 36 -47 c20 -26 42 -69 49 -95 15 -56 55 -114 73 -107
7 2 25 26 41 52 16 26 44 70 63 99 32 50 33 54 33 157 0 58 7 154 16 213 20
136 15 314 -11 364 -40 78 -67 177 -74 264 -5 81 -8 90 -27 93 -16 2 -33 -16
-82 -91z"/>
<path d="M9718 5326 c-45 -16 -99 -60 -124 -101 -10 -16 -22 -34 -26 -40 -4
-5 -18 -23 -31 -40 -35 -44 -54 -84 -62 -135 -4 -25 -15 -61 -25 -80 -42 -84
-87 -161 -140 -240 -116 -173 -149 -237 -163 -320 -33 -188 14 -330 109 -330
30 0 59 14 140 67 129 86 147 115 168 283 3 25 8 54 10 65 2 11 7 43 10 70 4
28 9 61 11 75 2 14 9 61 15 105 7 51 26 113 51 171 34 77 49 99 103 148 50 45
69 70 86 115 39 104 25 173 -39 191 -45 12 -47 12 -93 -4z"/>
<path d="M9683 4684 c-15 -15 -23 -35 -23 -59 0 -19 -10 -93 -22 -163 -27
-158 -27 -183 -1 -208 24 -23 39 -27 70 -19 49 12 74 60 89 170 3 28 8 59 10
70 2 11 7 50 10 87 6 61 4 71 -17 103 -13 19 -28 35 -34 36 -48 7 -61 4 -82
-17z"/>
</g>
</svg>
